<mxfile host="app.diagrams.net" modified="2024-03-25T18:39:23.551Z" agent="Mozilla/5.0 (Macintosh; Intel Mac OS X 10_15_7) AppleWebKit/537.36 (KHTML, like Gecko) Chrome/122.0.0.0 Safari/537.36" etag="lHaBcq8YCvsH3KzNW7Lp" version="24.0.7" type="google">
  <diagram name="Страница — 1" id="ZEq1WbaV7NY9vk7SlUEX">
    <mxGraphModel grid="1" page="1" gridSize="10" guides="1" tooltips="1" connect="1" arrows="1" fold="1" pageScale="1" pageWidth="827" pageHeight="1169" math="0" shadow="0">
      <root>
        <mxCell id="0" />
        <mxCell id="1" parent="0" />
        <mxCell id="hvE0NiNAW35Sm2xQxLrL-1" value="Auth" style="rounded=0;whiteSpace=wrap;html=1;" vertex="1" parent="1">
          <mxGeometry x="200" y="130" width="120" height="60" as="geometry" />
        </mxCell>
        <mxCell id="hvE0NiNAW35Sm2xQxLrL-19" style="edgeStyle=orthogonalEdgeStyle;rounded=0;orthogonalLoop=1;jettySize=auto;html=1;" edge="1" parent="1" source="hvE0NiNAW35Sm2xQxLrL-2" target="hvE0NiNAW35Sm2xQxLrL-4">
          <mxGeometry relative="1" as="geometry" />
        </mxCell>
        <mxCell id="hvE0NiNAW35Sm2xQxLrL-2" value="Posts" style="rounded=0;whiteSpace=wrap;html=1;" vertex="1" parent="1">
          <mxGeometry x="200" y="360" width="120" height="50" as="geometry" />
        </mxCell>
        <mxCell id="hvE0NiNAW35Sm2xQxLrL-3" value="Comments" style="rounded=0;whiteSpace=wrap;html=1;" vertex="1" parent="1">
          <mxGeometry x="50" y="450" width="120" height="60" as="geometry" />
        </mxCell>
        <mxCell id="hvE0NiNAW35Sm2xQxLrL-4" value="Likes" style="rounded=0;whiteSpace=wrap;html=1;" vertex="1" parent="1">
          <mxGeometry x="400" y="380" width="120" height="60" as="geometry" />
        </mxCell>
        <mxCell id="hvE0NiNAW35Sm2xQxLrL-15" style="edgeStyle=orthogonalEdgeStyle;rounded=0;orthogonalLoop=1;jettySize=auto;html=1;entryX=0;entryY=0.5;entryDx=0;entryDy=0;" edge="1" parent="1" source="hvE0NiNAW35Sm2xQxLrL-5" target="hvE0NiNAW35Sm2xQxLrL-7">
          <mxGeometry relative="1" as="geometry" />
        </mxCell>
        <mxCell id="hvE0NiNAW35Sm2xQxLrL-5" value="Newsline" style="rounded=0;whiteSpace=wrap;html=1;" vertex="1" parent="1">
          <mxGeometry x="-10" y="250" width="120" height="60" as="geometry" />
        </mxCell>
        <mxCell id="hvE0NiNAW35Sm2xQxLrL-6" value="Sendler" style="rounded=0;whiteSpace=wrap;html=1;" vertex="1" parent="1">
          <mxGeometry x="390" y="140" width="120" height="60" as="geometry" />
        </mxCell>
        <mxCell id="hvE0NiNAW35Sm2xQxLrL-18" style="edgeStyle=orthogonalEdgeStyle;rounded=0;orthogonalLoop=1;jettySize=auto;html=1;entryX=1;entryY=0.5;entryDx=0;entryDy=0;" edge="1" parent="1" source="hvE0NiNAW35Sm2xQxLrL-7" target="hvE0NiNAW35Sm2xQxLrL-5">
          <mxGeometry relative="1" as="geometry" />
        </mxCell>
        <mxCell id="hvE0NiNAW35Sm2xQxLrL-20" style="edgeStyle=orthogonalEdgeStyle;rounded=0;orthogonalLoop=1;jettySize=auto;html=1;entryX=0;entryY=0.5;entryDx=0;entryDy=0;" edge="1" parent="1" source="hvE0NiNAW35Sm2xQxLrL-7" target="hvE0NiNAW35Sm2xQxLrL-6">
          <mxGeometry relative="1" as="geometry" />
        </mxCell>
        <mxCell id="hvE0NiNAW35Sm2xQxLrL-7" value="User" style="rounded=0;whiteSpace=wrap;html=1;" vertex="1" parent="1">
          <mxGeometry x="200" y="250" width="120" height="60" as="geometry" />
        </mxCell>
        <mxCell id="hvE0NiNAW35Sm2xQxLrL-8" value="Subscribe" style="rounded=0;whiteSpace=wrap;html=1;" vertex="1" parent="1">
          <mxGeometry x="370" y="250" width="120" height="60" as="geometry" />
        </mxCell>
        <mxCell id="hvE0NiNAW35Sm2xQxLrL-10" value="" style="endArrow=classic;startArrow=classic;html=1;rounded=0;exitX=0.5;exitY=0;exitDx=0;exitDy=0;entryX=0.5;entryY=1;entryDx=0;entryDy=0;" edge="1" parent="1" source="hvE0NiNAW35Sm2xQxLrL-7" target="hvE0NiNAW35Sm2xQxLrL-1">
          <mxGeometry width="50" height="50" relative="1" as="geometry">
            <mxPoint x="250" y="250" as="sourcePoint" />
            <mxPoint x="260" y="200" as="targetPoint" />
          </mxGeometry>
        </mxCell>
        <mxCell id="hvE0NiNAW35Sm2xQxLrL-11" value="" style="endArrow=classic;startArrow=classic;html=1;rounded=0;entryX=0.5;entryY=1;entryDx=0;entryDy=0;exitX=0.5;exitY=0;exitDx=0;exitDy=0;" edge="1" parent="1" source="hvE0NiNAW35Sm2xQxLrL-2" target="hvE0NiNAW35Sm2xQxLrL-7">
          <mxGeometry width="50" height="50" relative="1" as="geometry">
            <mxPoint x="300" y="430" as="sourcePoint" />
            <mxPoint x="350" y="380" as="targetPoint" />
          </mxGeometry>
        </mxCell>
        <mxCell id="hvE0NiNAW35Sm2xQxLrL-12" value="" style="endArrow=classic;html=1;rounded=0;" edge="1" parent="1" source="hvE0NiNAW35Sm2xQxLrL-2" target="hvE0NiNAW35Sm2xQxLrL-3">
          <mxGeometry width="50" height="50" relative="1" as="geometry">
            <mxPoint x="300" y="430" as="sourcePoint" />
            <mxPoint x="350" y="380" as="targetPoint" />
          </mxGeometry>
        </mxCell>
        <mxCell id="hvE0NiNAW35Sm2xQxLrL-13" value="" style="endArrow=classic;startArrow=classic;html=1;rounded=0;entryX=0;entryY=0.5;entryDx=0;entryDy=0;exitX=1;exitY=0.5;exitDx=0;exitDy=0;" edge="1" parent="1" source="hvE0NiNAW35Sm2xQxLrL-7" target="hvE0NiNAW35Sm2xQxLrL-8">
          <mxGeometry width="50" height="50" relative="1" as="geometry">
            <mxPoint x="300" y="430" as="sourcePoint" />
            <mxPoint x="350" y="380" as="targetPoint" />
          </mxGeometry>
        </mxCell>
      </root>
    </mxGraphModel>
  </diagram>
</mxfile>
